# xmcd
#
# Track frame offsets: 
#        300
#        26380
#        49472
#        68223
#        90162
#        118442
#        143472
#        171549
#        192416
#        215449
#        233523
#        257741
#        277884
#        299051
#        320222
#
# Disc length: 4581 seconds
#
# Revision: 0
# Processed by: cddbd v1.5.2PL0 Copyright (c) Steve Scherf et al.
# Submitted via: ExactAudioCopy v1.3
#
DISCID=ea11e10f
DTITLE=The SpeedFreak - Gabberdisco Exclusive Edits
DYEAR=2019
DGENRE=Gabberdisco
TTITLE0=Douche-Fiasco Odelrodel (Edit)
TTITLE1=Pot Shop Boy - Smoking With The Bestest (Edit)
TTITLE2=Muffinkopf (Edit)
TTITLE3=DoesItMatter  (Edit)
TTITLE4=Eisenigel (Edit)
TTITLE5=Cosmic Gloryhole (Edit)
TTITLE6=Entenkäse (Edit)
TTITLE7=Trampoline Takeover (Edit)
TTITLE8=The Speed Freak and Chrizz P. - Maximalbezwergt (Edit)
TTITLE9=Abschiss (Edit)
TTITLE10=Strong Kanegou (Edit)
TTITLE11=Synthethether (Edit)
TTITLE12=Bury Me In A Marihuana-Field (Edit)
TTITLE13=Search and Destroy - Jerk Your Body (Edit)
TTITLE14=Wurst-Käs-Szenario (Edit)
EXTD=
EXTT0=
EXTT1=
EXTT2=
EXTT3=
EXTT4=
EXTT5=
EXTT6=
EXTT7=
EXTT8=
EXTT9=
EXTT10=
EXTT11=
EXTT12=
EXTT13=
EXTT14=
PLAYORDER=
